<svg width="24" height="24" viewBox="0 0 24 24" fill="none" xmlns="http://www.w3.org/2000/svg">
<path d="M12 22.75C6.07 22.75 1.25 17.93 1.25 12C1.25 6.07 6.07 1.25 12 1.25C17.93 1.25 22.75 6.07 22.75 12C22.75 17.93 17.93 22.75 12 22.75ZM12 2.75C6.9 2.75 2.75 6.9 2.75 12C2.75 17.1 6.9 21.25 12 21.25C17.1 21.25 21.25 17.1 21.25 12C21.25 6.9 17.1 2.75 12 2.75Z" fill="#28363B"/>
<path d="M12.0249 14.5C11.5124 14.5 11.0874 14.075 11.0874 13.5625V13.3C11.0874 11.85 12.1499 11.1375 12.5499 10.8625C13.0124 10.55 13.1624 10.3375 13.1624 10.0125C13.1624 9.38754 12.6499 8.875 12.0249 8.875C11.3999 8.875 10.8875 9.38754 10.8875 10.0125C10.8875 10.525 10.4625 10.95 9.94997 10.95C9.43747 10.95 9.01247 10.525 9.01247 10.0125C9.01247 8.35004 10.3624 7 12.0249 7C13.6874 7 15.0374 8.35004 15.0374 10.0125C15.0374 11.4375 13.9874 12.15 13.5999 12.4125C13.1124 12.7375 12.9624 12.95 12.9624 13.3V13.5625C12.9624 14.0875 12.5374 14.5 12.0249 14.5Z" fill="#28363B"/>
<path d="M11.875 17.375C11.35 17.375 10.9375 16.95 10.9375 16.4375C10.9375 15.925 11.3625 15.5 11.875 15.5C12.3875 15.5 12.8125 15.925 12.8125 16.4375C12.8125 16.95 12.4 17.375 11.875 17.375Z" fill="#28363B"/>
</svg>
