<svg width="221" height="330" viewBox="0 0 221 330" fill="none" xmlns="http://www.w3.org/2000/svg">
<mask id="path-1-inside-1_2300_4283" fill="white">
<path d="M139.706 0.00558731C139.887 0.0037435 140.068 0.00189968 140.255 0C142.316 0.0070423 144.001 0.398471 145.566 1.82798C150.196 6.67303 149.998 16.7859 150.015 22.9834C150.017 23.3525 150.019 23.7215 150.021 24.0906C150.025 25.2751 150.026 26.4596 150.027 27.6441C150.027 27.8468 150.027 28.0494 150.027 28.2582C150.029 35.0094 149.867 41.7171 149.312 48.4484C149.25 49.1976 149.191 49.9469 149.132 50.6963C147.754 68.0859 145.526 85.4062 142.995 102.662C142.879 103.454 142.763 104.247 142.647 105.04C142.305 107.374 141.963 109.708 141.612 112.04C141.468 113.007 141.325 113.975 141.183 114.942C141.117 115.39 141.05 115.838 140.981 116.286C139.956 121.844 139.956 121.844 141.568 126.994C142.333 127.526 142.839 127.605 143.772 127.605C145.245 127.171 146.312 126.278 147.108 124.982C148.148 122.338 148.621 119.459 149.21 116.69C149.321 116.177 149.431 115.665 149.542 115.152C149.776 114.064 150.01 112.975 150.243 111.886C150.797 109.304 151.354 106.722 151.912 104.141C152.037 103.563 152.162 102.984 152.287 102.406C162.612 54.5932 162.612 54.5932 169.267 35.3472C169.336 35.1732 169.404 34.9993 169.474 34.8201C170.845 31.3628 172.802 27.203 176.177 25.3347C178.507 24.4172 181.116 24.6167 183.423 25.5154C185.149 26.3435 185.97 27.3829 186.627 29.1876C187.694 32.5289 187.736 36.1647 187.704 39.6382C187.702 39.9609 187.702 39.9609 187.701 40.2901C187.674 44.7098 187.384 49.0737 186.9 53.465C186.878 53.6676 186.856 53.8702 186.833 54.079C185.614 65.2567 183.747 76.3529 181.702 87.406C181.671 87.5766 181.639 87.7472 181.607 87.9229C180.549 93.6337 179.4 99.3257 178.237 105.016C178 106.175 177.764 107.334 177.528 108.494C177.369 109.275 177.21 110.056 177.051 110.837C177.011 111.032 176.972 111.226 176.931 111.427C176.453 113.773 175.971 116.119 175.484 118.463C175.174 119.959 174.867 121.455 174.563 122.951C174.384 123.828 174.204 124.704 174.02 125.579C173.058 130.06 173.058 130.06 172.695 134.62C172.692 134.803 172.689 134.986 172.686 135.175C172.719 136.47 173.093 137.483 173.795 138.571C174.497 139.232 175.137 139.35 176.073 139.42C177.947 139.359 179.707 138.406 181.092 137.17C186.39 131.253 188.471 122.395 190.965 115.03C193.503 107.54 196.051 100.041 199.096 92.74C199.168 92.5692 199.239 92.3983 199.312 92.2223C201.996 85.8041 201.996 85.8041 204.056 83.5023C204.22 83.3158 204.384 83.1293 204.553 82.9371C206.572 80.7761 208.72 79.8341 211.68 79.6881C213.993 79.822 216.247 80.9191 217.875 82.5488C219.846 84.9753 220.904 87.5013 220.735 90.6541C220.618 91.2623 220.479 91.8667 220.321 92.4656C220.277 92.6303 220.234 92.7951 220.19 92.9649C219.752 94.6205 219.273 96.2642 218.785 97.9055C218.688 98.2336 218.591 98.5617 218.494 98.8898C218.285 99.5982 218.076 100.307 217.866 101.015C217.272 103.022 216.683 105.03 216.093 107.039C216.03 107.253 215.967 107.467 215.903 107.688C214.376 112.891 212.877 118.101 211.382 123.314C211.313 123.555 211.244 123.797 211.173 124.046C207.945 135.304 204.731 146.565 201.516 157.827C201.31 158.548 201.104 159.268 200.899 159.989C200.445 161.578 199.992 163.167 199.54 164.756C199.293 165.622 199.047 166.488 198.8 167.353C198.752 167.523 198.704 167.693 198.654 167.868C198.01 170.126 197.357 172.381 196.696 174.634C196.344 175.833 195.994 177.033 195.645 178.234C195.412 179.035 195.177 179.836 194.938 180.636C193.527 185.378 192.774 189.898 192.494 194.826C192.372 196.947 192.07 199.037 191.74 201.134C191.71 201.323 191.68 201.513 191.65 201.708C188.351 222.422 183.054 247.334 161.881 275.646C161.714 275.731 161.548 275.817 161.377 275.904C160.777 276.515 160.81 277.028 160.798 277.858C160.8 278.064 160.802 278.271 160.804 278.484C160.802 278.703 160.8 278.922 160.799 279.148C160.794 279.887 160.796 280.627 160.798 281.366C160.796 281.903 160.793 282.441 160.79 282.978C160.784 284.419 160.783 285.861 160.783 287.303C160.782 288.654 160.777 290.006 160.771 291.358C160.759 295.313 160.754 299.269 160.749 303.225C160.729 312.061 160.71 320.896 160.689 329.999C132.382 329.999 104.075 329.999 74.9104 329.999C75.0445 299.798 75.0445 299.798 75.1185 290.267C75.121 287.444 75.121 287.444 75.118 284.621C75.1168 283.365 75.1267 282.109 75.1442 280.853C75.1664 279.249 75.1676 277.646 75.1556 276.041C75.1545 275.454 75.1601 274.866 75.1735 274.279C75.3264 271.333 75.3264 271.333 74.2771 268.679C73.3323 267.745 72.2721 267.061 71.1208 266.41C70.3572 265.952 69.7161 265.396 69.0429 264.814C68.913 264.702 68.7831 264.591 68.6492 264.476C64.7885 261.149 61.2823 257.561 58.2312 253.476C58.1289 253.339 58.0267 253.203 57.9213 253.062C56.3705 250.98 54.9763 248.826 53.7039 246.562C53.6004 246.378 53.4968 246.194 53.3902 246.005C50.5189 240.844 48.596 235.54 47.3304 229.778C46.6384 226.775 45.5602 223.933 44.4708 221.054C44.2676 220.514 44.0645 219.973 43.8614 219.432C37.4959 202.534 30.4774 185.563 21.2315 170.015C20.8303 169.337 20.4345 168.657 20.0401 167.975C17.5565 163.694 14.9036 159.568 11.7675 155.735C8.71919 151.983 5.7754 148.144 3.18963 144.054C3.03097 143.804 3.03097 143.804 2.8691 143.549C0.405049 139.63 0.405049 139.63 0.0920548 137.379C0.0684042 137.213 0.0447535 137.048 0.0203862 136.877C-0.219388 133.224 1.68918 128.746 3.99381 125.996C5.92279 124.053 8.22488 123.35 10.9177 123.298C18.033 123.547 24.5129 127.769 29.8764 132.134C30.0605 132.282 30.0605 132.282 30.2483 132.432C34.1019 135.533 37.8944 139.16 40.7889 143.184C41.0944 143.603 41.4105 144.013 41.7288 144.424C42.9191 145.974 43.9868 147.566 44.9473 149.269C45.0369 149.425 45.1264 149.582 45.2187 149.744C46.8452 152.721 47.9322 155.923 48.8704 159.171C51.6284 169.29 51.6284 169.29 58.2442 176.955C59.2505 177.466 60.2206 177.626 61.3288 177.429C67.0772 174.804 70.4822 165.995 72.553 160.521C75.4639 152.533 76.9939 144.156 77.7697 135.71C77.7955 135.438 77.7955 135.438 77.8217 135.16C78.2994 129.903 78.0017 124.635 77.4868 119.395C77.4414 118.918 77.396 118.44 77.3507 117.962C76.2018 105.876 74.8591 93.8079 73.572 81.736C73.1376 77.6615 72.7036 73.5868 72.2745 69.5117C72.2525 69.3029 72.2305 69.094 72.2079 68.8789C71.5269 62.405 70.8821 55.9291 70.4197 49.4352C70.386 48.9736 70.3486 48.5122 70.3108 48.0508C70.085 45.037 70.0921 42.0182 70.0877 38.9974C70.0854 38.0502 70.078 37.1031 70.0705 36.1559C70.0454 30.134 70.1215 22.6719 74.4934 17.9744C75.5549 16.975 76.6606 16.3392 78.008 15.799C78.2636 15.6958 78.5191 15.5925 78.7824 15.4862C80.8975 15.0982 82.9474 15.0022 84.8463 16.1185C93.8333 22.6063 95.2021 39.5362 96.8377 49.6196C98.3634 59.1583 99.4768 68.7466 100.591 78.3399C100.641 78.7768 100.692 79.2138 100.743 79.6508C100.768 79.8678 100.793 80.0848 100.819 80.3084C101.352 84.897 101.899 89.484 102.459 94.0693C102.558 94.8738 102.655 95.6784 102.752 96.483C103.253 100.658 103.805 104.82 104.468 108.973C104.496 109.153 104.524 109.333 104.553 109.518C105.106 114.847 105.106 114.847 107.757 119.108C108.801 119.697 109.687 119.925 110.89 119.738C112.462 119.165 113.394 118.606 114.226 117.116C114.421 116.366 114.504 115.613 114.586 114.844C114.626 114.508 114.626 114.508 114.667 114.164C114.754 113.423 114.836 112.68 114.918 111.938C114.979 111.411 115.04 110.884 115.102 110.357C115.261 108.984 115.415 107.611 115.567 106.238C115.651 105.473 115.737 104.707 115.823 103.942C116.186 100.699 116.535 97.4546 116.879 94.2095C116.968 93.377 117.057 92.5445 117.146 91.712C117.89 84.7523 118.615 77.7909 119.32 70.8272C119.375 70.2876 119.43 69.7479 119.484 69.2082C119.967 64.4523 119.967 64.4523 120.444 59.6959C121.182 52.3028 121.964 44.9181 122.858 37.5421C122.878 37.3763 122.898 37.2106 122.918 37.0398C126.494 7.43792 126.494 7.43792 133.526 1.73393C135.48 0.509771 137.416 -0.0176172 139.706 0.00558731Z"/>
</mask>
<path d="M139.706 0.00558731C139.887 0.0037435 140.068 0.00189968 140.255 0C142.316 0.0070423 144.001 0.398471 145.566 1.82798C150.196 6.67303 149.998 16.7859 150.015 22.9834C150.017 23.3525 150.019 23.7215 150.021 24.0906C150.025 25.2751 150.026 26.4596 150.027 27.6441C150.027 27.8468 150.027 28.0494 150.027 28.2582C150.029 35.0094 149.867 41.7171 149.312 48.4484C149.25 49.1976 149.191 49.9469 149.132 50.6963C147.754 68.0859 145.526 85.4062 142.995 102.662C142.879 103.454 142.763 104.247 142.647 105.04C142.305 107.374 141.963 109.708 141.612 112.04C141.468 113.007 141.325 113.975 141.183 114.942C141.117 115.39 141.05 115.838 140.981 116.286C139.956 121.844 139.956 121.844 141.568 126.994C142.333 127.526 142.839 127.605 143.772 127.605C145.245 127.171 146.312 126.278 147.108 124.982C148.148 122.338 148.621 119.459 149.21 116.69C149.321 116.177 149.431 115.665 149.542 115.152C149.776 114.064 150.01 112.975 150.243 111.886C150.797 109.304 151.354 106.722 151.912 104.141C152.037 103.563 152.162 102.984 152.287 102.406C162.612 54.5932 162.612 54.5932 169.267 35.3472C169.336 35.1732 169.404 34.9993 169.474 34.8201C170.845 31.3628 172.802 27.203 176.177 25.3347C178.507 24.4172 181.116 24.6167 183.423 25.5154C185.149 26.3435 185.97 27.3829 186.627 29.1876C187.694 32.5289 187.736 36.1647 187.704 39.6382C187.702 39.9609 187.702 39.9609 187.701 40.2901C187.674 44.7098 187.384 49.0737 186.9 53.465C186.878 53.6676 186.856 53.8702 186.833 54.079C185.614 65.2567 183.747 76.3529 181.702 87.406C181.671 87.5766 181.639 87.7472 181.607 87.9229C180.549 93.6337 179.4 99.3257 178.237 105.016C178 106.175 177.764 107.334 177.528 108.494C177.369 109.275 177.21 110.056 177.051 110.837C177.011 111.032 176.972 111.226 176.931 111.427C176.453 113.773 175.971 116.119 175.484 118.463C175.174 119.959 174.867 121.455 174.563 122.951C174.384 123.828 174.204 124.704 174.02 125.579C173.058 130.06 173.058 130.06 172.695 134.62C172.692 134.803 172.689 134.986 172.686 135.175C172.719 136.47 173.093 137.483 173.795 138.571C174.497 139.232 175.137 139.35 176.073 139.42C177.947 139.359 179.707 138.406 181.092 137.17C186.39 131.253 188.471 122.395 190.965 115.03C193.503 107.54 196.051 100.041 199.096 92.74C199.168 92.5692 199.239 92.3983 199.312 92.2223C201.996 85.8041 201.996 85.8041 204.056 83.5023C204.22 83.3158 204.384 83.1293 204.553 82.9371C206.572 80.7761 208.72 79.8341 211.68 79.6881C213.993 79.822 216.247 80.9191 217.875 82.5488C219.846 84.9753 220.904 87.5013 220.735 90.6541C220.618 91.2623 220.479 91.8667 220.321 92.4656C220.277 92.6303 220.234 92.7951 220.19 92.9649C219.752 94.6205 219.273 96.2642 218.785 97.9055C218.688 98.2336 218.591 98.5617 218.494 98.8898C218.285 99.5982 218.076 100.307 217.866 101.015C217.272 103.022 216.683 105.03 216.093 107.039C216.03 107.253 215.967 107.467 215.903 107.688C214.376 112.891 212.877 118.101 211.382 123.314C211.313 123.555 211.244 123.797 211.173 124.046C207.945 135.304 204.731 146.565 201.516 157.827C201.31 158.548 201.104 159.268 200.899 159.989C200.445 161.578 199.992 163.167 199.54 164.756C199.293 165.622 199.047 166.488 198.8 167.353C198.752 167.523 198.704 167.693 198.654 167.868C198.01 170.126 197.357 172.381 196.696 174.634C196.344 175.833 195.994 177.033 195.645 178.234C195.412 179.035 195.177 179.836 194.938 180.636C193.527 185.378 192.774 189.898 192.494 194.826C192.372 196.947 192.07 199.037 191.74 201.134C191.71 201.323 191.68 201.513 191.65 201.708C188.351 222.422 183.054 247.334 161.881 275.646C161.714 275.731 161.548 275.817 161.377 275.904C160.777 276.515 160.81 277.028 160.798 277.858C160.8 278.064 160.802 278.271 160.804 278.484C160.802 278.703 160.8 278.922 160.799 279.148C160.794 279.887 160.796 280.627 160.798 281.366C160.796 281.903 160.793 282.441 160.79 282.978C160.784 284.419 160.783 285.861 160.783 287.303C160.782 288.654 160.777 290.006 160.771 291.358C160.759 295.313 160.754 299.269 160.749 303.225C160.729 312.061 160.71 320.896 160.689 329.999C132.382 329.999 104.075 329.999 74.9104 329.999C75.0445 299.798 75.0445 299.798 75.1185 290.267C75.121 287.444 75.121 287.444 75.118 284.621C75.1168 283.365 75.1267 282.109 75.1442 280.853C75.1664 279.249 75.1676 277.646 75.1556 276.041C75.1545 275.454 75.1601 274.866 75.1735 274.279C75.3264 271.333 75.3264 271.333 74.2771 268.679C73.3323 267.745 72.2721 267.061 71.1208 266.41C70.3572 265.952 69.7161 265.396 69.0429 264.814C68.913 264.702 68.7831 264.591 68.6492 264.476C64.7885 261.149 61.2823 257.561 58.2312 253.476C58.1289 253.339 58.0267 253.203 57.9213 253.062C56.3705 250.98 54.9763 248.826 53.7039 246.562C53.6004 246.378 53.4968 246.194 53.3902 246.005C50.5189 240.844 48.596 235.54 47.3304 229.778C46.6384 226.775 45.5602 223.933 44.4708 221.054C44.2676 220.514 44.0645 219.973 43.8614 219.432C37.4959 202.534 30.4774 185.563 21.2315 170.015C20.8303 169.337 20.4345 168.657 20.0401 167.975C17.5565 163.694 14.9036 159.568 11.7675 155.735C8.71919 151.983 5.7754 148.144 3.18963 144.054C3.03097 143.804 3.03097 143.804 2.8691 143.549C0.405049 139.63 0.405049 139.63 0.0920548 137.379C0.0684042 137.213 0.0447535 137.048 0.0203862 136.877C-0.219388 133.224 1.68918 128.746 3.99381 125.996C5.92279 124.053 8.22488 123.35 10.9177 123.298C18.033 123.547 24.5129 127.769 29.8764 132.134C30.0605 132.282 30.0605 132.282 30.2483 132.432C34.1019 135.533 37.8944 139.16 40.7889 143.184C41.0944 143.603 41.4105 144.013 41.7288 144.424C42.9191 145.974 43.9868 147.566 44.9473 149.269C45.0369 149.425 45.1264 149.582 45.2187 149.744C46.8452 152.721 47.9322 155.923 48.8704 159.171C51.6284 169.29 51.6284 169.29 58.2442 176.955C59.2505 177.466 60.2206 177.626 61.3288 177.429C67.0772 174.804 70.4822 165.995 72.553 160.521C75.4639 152.533 76.9939 144.156 77.7697 135.71C77.7955 135.438 77.7955 135.438 77.8217 135.16C78.2994 129.903 78.0017 124.635 77.4868 119.395C77.4414 118.918 77.396 118.44 77.3507 117.962C76.2018 105.876 74.8591 93.8079 73.572 81.736C73.1376 77.6615 72.7036 73.5868 72.2745 69.5117C72.2525 69.3029 72.2305 69.094 72.2079 68.8789C71.5269 62.405 70.8821 55.9291 70.4197 49.4352C70.386 48.9736 70.3486 48.5122 70.3108 48.0508C70.085 45.037 70.0921 42.0182 70.0877 38.9974C70.0854 38.0502 70.078 37.1031 70.0705 36.1559C70.0454 30.134 70.1215 22.6719 74.4934 17.9744C75.5549 16.975 76.6606 16.3392 78.008 15.799C78.2636 15.6958 78.5191 15.5925 78.7824 15.4862C80.8975 15.0982 82.9474 15.0022 84.8463 16.1185C93.8333 22.6063 95.2021 39.5362 96.8377 49.6196C98.3634 59.1583 99.4768 68.7466 100.591 78.3399C100.641 78.7768 100.692 79.2138 100.743 79.6508C100.768 79.8678 100.793 80.0848 100.819 80.3084C101.352 84.897 101.899 89.484 102.459 94.0693C102.558 94.8738 102.655 95.6784 102.752 96.483C103.253 100.658 103.805 104.82 104.468 108.973C104.496 109.153 104.524 109.333 104.553 109.518C105.106 114.847 105.106 114.847 107.757 119.108C108.801 119.697 109.687 119.925 110.89 119.738C112.462 119.165 113.394 118.606 114.226 117.116C114.421 116.366 114.504 115.613 114.586 114.844C114.626 114.508 114.626 114.508 114.667 114.164C114.754 113.423 114.836 112.68 114.918 111.938C114.979 111.411 115.04 110.884 115.102 110.357C115.261 108.984 115.415 107.611 115.567 106.238C115.651 105.473 115.737 104.707 115.823 103.942C116.186 100.699 116.535 97.4546 116.879 94.2095C116.968 93.377 117.057 92.5445 117.146 91.712C117.89 84.7523 118.615 77.7909 119.32 70.8272C119.375 70.2876 119.43 69.7479 119.484 69.2082C119.967 64.4523 119.967 64.4523 120.444 59.6959C121.182 52.3028 121.964 44.9181 122.858 37.5421C122.878 37.3763 122.898 37.2106 122.918 37.0398C126.494 7.43792 126.494 7.43792 133.526 1.73393C135.48 0.509771 137.416 -0.0176172 139.706 0.00558731Z" fill="white" stroke="#425259" stroke-width="4" mask="url(#path-1-inside-1_2300_4283)"/>
</svg>
