<svg width="38" height="110" viewBox="0 0 38 110" fill="none" xmlns="http://www.w3.org/2000/svg">
<path opacity="0.6" d="M14.8716 1.03854C23.8586 7.5264 25.1386 24.1632 26.7742 34.2466C28.3 43.7853 29.4133 53.3736 30.5271 62.9669C30.5779 63.4038 30.6286 63.8408 30.6793 64.2778C30.7045 64.4948 30.7297 64.7118 30.7557 64.9354C31.2887 69.524 31.8354 74.111 32.396 78.6963C32.4943 79.5008 32.5918 80.3054 32.6884 81.11C33.19 85.2849 33.7415 89.4474 34.4043 93.6C34.4325 93.7798 34.4607 93.9596 34.4898 94.1448C34.7676 96.8721 34.7826 98.1028 35.2441 99.4944C35.5211 100.329 36.5546 101.997 37.3886 103.428C35.9589 104.62 35.9589 104.501 33.5762 105.216C31.1934 105.931 17.6451 109.388 7.84248 109.388C7.23801 103.333 7.34008 103.316 6.7234 97.1386C6.46279 94.5398 6.20204 91.941 5.93876 89.3425C5.92229 89.1799 5.90582 89.0172 5.88885 88.8497C5.34035 83.4373 4.77414 78.0269 4.19452 72.6178C4.17607 72.4456 4.15762 72.2734 4.13862 72.0959C3.77794 68.729 3.41573 65.3622 3.05004 61.9958C2.16401 53.8387 1.34124 45.6791 0.612347 37.5064C0.562185 36.9464 0.511319 36.3865 0.460065 35.8265C0.418139 35.3668 0.418139 35.3668 0.375366 34.8977C0.352133 34.6445 0.3289 34.3912 0.304963 34.1302C-0.00459197 30.4122 0.0245056 26.6716 0.00932307 22.9433C0.00705666 22.4706 0.00353944 21.998 0 21.5253C0.00518304 13.7077 0.394188 10.0229 1.64733 7.23673C2.71957 4.85281 3.13257 4.00102 4.50653 2.70728C5.56797 1.70789 6.73323 1.1019 8.08066 0.561758C8.33621 0.458504 8.65133 0.310552 8.91462 0.20417C11.0297 -0.183785 12.9727 -0.0777387 14.8716 1.03854Z" fill="#9AAAB0"/>
</svg>
