<svg width="37" height="127" viewBox="0 0 37 127" fill="none" xmlns="http://www.w3.org/2000/svg">
<path opacity="0.6" d="M26.1926 0.000554514C26.3736 -0.0012893 26.84 0.00245681 27.0265 0.000557123C29.0872 0.00759942 31.3155 0.536934 32.7451 2.26528C37.1532 7.3907 36.7077 17.2632 36.7251 23.4607C36.7267 23.8298 36.7284 24.1989 36.7301 24.568C36.7348 25.7525 36.736 26.937 36.7362 28.1215C36.7364 28.4254 36.7364 28.4254 36.7366 28.7356C36.7384 35.4867 36.5771 42.1944 36.0214 48.9258C35.9599 49.675 35.9007 50.4243 35.8418 51.1737C34.4637 68.5632 32.2356 85.8835 29.7045 103.139C29.5883 103.932 29.4723 104.725 29.3564 105.518C29.0151 107.851 28.6725 110.185 28.322 112.518C28.1773 113.485 28.0349 114.452 27.893 115.419C27.8267 115.868 27.7594 116.316 27.6909 116.764C26.9075 122.296 26.6692 121.223 28.0988 126.11C27.1457 126.348 27.2612 126.437 26.1926 126.348C24.763 126.229 25.3587 126.348 23.5716 125.871C13.7707 123.257 17.4957 124.231 7.60717 121.58C-2.04283 119.196 -0.136804 118.958 0.816296 117.528C0.990248 117.004 1.10937 117.069 1.15406 116.549C1.17843 116.354 1.2028 116.158 1.22792 115.957C1.25011 115.747 1.27229 115.537 1.29515 115.321C1.32195 115.097 1.34874 114.873 1.37635 114.642C1.46398 113.9 1.54599 113.158 1.6279 112.415C1.68882 111.888 1.75003 111.361 1.81152 110.834C1.97044 109.462 2.12426 108.089 2.2761 106.716C2.36081 105.95 2.44638 105.185 2.53225 104.419C2.89546 101.176 3.24456 97.9319 3.58905 94.6869C3.67756 93.8543 3.76649 93.0218 3.85554 92.1893C4.59975 85.2297 5.32436 78.2682 6.02978 71.3046C6.08447 70.7649 6.13921 70.2252 6.19396 69.6855C6.6767 64.9297 6.6767 64.9297 7.15401 60.1733C7.89144 52.7801 8.67358 45.3954 9.5673 38.0194C9.58732 37.8537 9.60734 37.6879 9.62796 37.5172C13.2038 7.91526 13.0847 7.61169 20.1166 1.9077C22.0701 0.68354 23.9023 -0.02265 26.1926 0.000554514Z" fill="#9AAAB0"/>
</svg>
