<svg width="41" height="71" viewBox="0 0 41 71" fill="none" xmlns="http://www.w3.org/2000/svg">
<path opacity="0.6" d="M37.4091 2.19529C39.5456 4.33291 40.8814 6.66779 40.9832 9.70463C40.9791 10.6961 40.9098 11.6089 40.656 12.5696L40.5254 13.0689C40.0877 14.7246 39.6089 16.3683 39.1203 18.0095L38.8291 18.996C38.6199 19.705 38.4104 20.414 38.2005 21.1229C37.6127 23.1092 37.0288 25.0967 36.4453 27.0842L36.2564 27.7277C34.6317 33.2641 33.0399 38.81 31.4499 44.3565L31.0116 45.8848C29.4928 51.1818 27.9782 56.4799 26.4694 61.7798L25.8549 63.9373L25.4571 65.3336L25.2619 66.0188C24.8836 67.3468 24.5062 68.675 24.1294 70.0034C23.9033 70.8 0.971711 58.1741 0.0282396 58.5469C0.01834 58.5567 0.0089194 58.5661 0 58.575C0.00363783 58.5622 0.0131124 58.5529 0.0282396 58.5469C0.47758 58.1019 1.91379 56.7447 2.2635 56.3102C2.69313 55.7765 3.09756 55.2257 3.45487 54.6415C3.55502 54.4782 3.82824 54.0946 3.93142 53.9263C7.41615 48.0769 9.12763 41.5497 11.3008 35.1337C13.8382 27.6443 16.3862 20.1448 19.4319 12.8441L19.6473 12.3264C22.3312 5.90813 22.3312 5.90813 24.391 3.60637C24.5553 3.41984 25.0877 2.98344 25.257 2.79126C29.4269 -0.903806 33.1181 -0.750971 37.4091 2.19529Z" fill="#9AAAB0"/>
</svg>
