<svg width="43" height="114" viewBox="0 0 43 114" fill="none" xmlns="http://www.w3.org/2000/svg">
<path opacity="0.6" d="M39.5829 1.36422C41.3761 2.66831 42.0751 4.95346 42.4133 7.03256C42.811 9.69269 42.915 12.212 42.8899 14.8995C42.8888 15.1146 42.891 15.393 42.8899 15.6147C42.8635 20.0343 42.5402 24.4541 42.0559 28.8454C42.0339 29.0481 41.9595 29.2326 41.9368 29.4414C40.7177 40.6191 38.9137 51.7506 36.8139 62.697C36.7823 62.8676 36.7272 63.1173 36.6947 63.293C35.6365 69.0037 34.5214 74.6479 33.3589 80.338C33.1221 81.4972 32.8801 82.6354 32.644 83.7947C32.485 84.576 32.3266 85.3974 32.1675 86.1786C32.1279 86.373 32.0891 86.5743 32.0484 86.7746C31.5704 89.1211 31.1055 91.4625 30.6187 93.8072C30.3084 95.3026 29.9702 96.7208 29.6656 98.2174C29.4871 99.0937 29.2543 100.203 29.0699 101.078C28.1084 105.56 28.1227 105.339 27.7594 109.899C27.7566 110.082 27.7622 109.948 27.7594 110.137C27.7923 111.455 27.759 110.852 28.1165 112.044C28.1951 112.201 28.512 113.074 28.593 113.236C19.6577 110.852 17.2752 110.495 4.52764 104.416C0.9531 102.711 2.77262 103.7 0 102.389C1.54879 101.674 2.49296 99.5915 2.65377 98.9098C2.72627 98.6417 2.79878 98.3736 2.87347 98.0973C2.94955 97.7835 3.02427 97.4693 3.09792 97.1549C3.1402 96.9756 3.18248 96.7963 3.22604 96.6116C3.58547 95.0656 3.91674 93.5138 4.24741 91.9615C4.35769 91.4489 4.4681 90.9364 4.57864 90.4239C4.81326 89.3351 5.04712 88.2462 5.28038 87.1571C5.83359 84.575 6.39153 81.9939 6.94928 79.4128C7.0743 78.8342 7.19928 78.2556 7.32421 77.677C17.6486 29.8647 17.6486 29.8647 24.3044 10.6187C24.3727 10.4447 24.4409 10.2708 24.5113 10.0916C25.882 6.63427 27.8388 2.47445 31.2144 0.606207C33.9513 -0.47192 37.0478 -0.0464297 39.5829 1.36422Z" fill="#9AAAB0"/>
</svg>
