<svg width="60" height="89" viewBox="0 0 60 89" fill="none" xmlns="http://www.w3.org/2000/svg">
<path opacity="0.6" d="M29.9035 8.95104C30.0876 9.09837 30.1923 9.15832 30.3801 9.30863C34.2337 12.41 37.9697 15.8936 40.8642 19.9171C41.1697 20.3368 41.499 20.8181 41.8173 21.2282C43.0076 22.7783 44.0734 24.2931 45.034 25.9961C45.1235 26.1529 45.2991 26.4305 45.3914 26.592C47.0179 29.5695 48.1465 32.7603 49.0847 36.0085C51.8427 46.1275 51.7616 46.1037 58.3774 53.7687C58.8707 54.0338 58.7375 54.096 59.4225 54.3049C57.5434 61.7548 57.3141 62.7084 51.4674 72.84C46.2254 81.924 47.1785 81.8989 41.0754 88.8717C40.5446 87.5933 40.0138 86.3149 39.467 84.9978C34.0553 72 28.439 59.0117 21.2315 46.8914C20.8303 46.2136 20.4345 45.533 20.0401 44.8511C17.5565 40.5698 14.9036 36.4445 11.7675 32.6112C8.71919 28.8588 5.77539 25.0198 3.18963 20.93C3.08386 20.7634 2.97808 20.5967 2.8691 20.4251C0.405049 16.506 0.405049 16.506 0.0920548 14.255C0.0684042 14.0894 0.0447535 13.9238 0.0203862 13.7531C-0.219388 10.0999 1.68918 5.62242 3.99381 2.87183C11.2726 -4.46038 23.7953 3.97951 29.9035 8.95104Z" fill="#9AAAB0"/>
</svg>
